<?xml version="1.0" encoding="utf-8"?>
<!-- Generator: Adobe Illustrator 24.3.0, SVG Export Plug-In . SVG Version: 6.00 Build 0)  -->
<svg version="1.1" id="Layer_1" xmlns="http://www.w3.org/2000/svg" xmlns:xlink="http://www.w3.org/1999/xlink" x="0px" y="0px"
	 viewBox="0 0 120 120" style="enable-background:new 0 0 120 120;" xml:space="preserve">
<style type="text/css">
	.st0{opacity:0.5;fill:#0C8EFB;enable-background:new    ;}
	.st1{enable-background:new    ;}
	.st2{fill:#0755E3;}
</style>
<g>
	<g>
		<path class="st0" d="M64,97.2c-5,3.5-11.1,5.4-17.3,5.2c-7.6-0.3-14.8-3.7-19.9-9.4c-5.4-6-8.2-13.9-7.6-22
			c0.5-8,3.4-16.7,8.4-25.9c1.4,3.4,2.1,7,2,10.7c0,0.8,0.7,1.5,1.5,1.5s1.5-0.7,1.5-1.5c0-17.7,11.6-18.1,12-18.1
			c0.8,0,1.5-0.7,1.5-1.5s-0.7-1.5-1.5-1.5c-2.1-0.2-4.2-0.9-5.9-2.2c-0.7-0.5-1.3-1.1-1.9-1.8c3.3-4.4,6.9-8.6,10.8-12.6
			c5.6,5.7,10.6,12,14.9,18.6l1-4.1c-3.3-4.8-7.8-10.4-13.8-16.6c-0.6-0.6-1.3-0.9-2.1-0.9l0,0c-0.8,0-1.6,0.3-2.1,0.9
			c-3.7,3.8-7.2,7.9-10.4,12.2c-1.7-3.6-2.6-7.6-2.4-11.6c0-0.8-0.7-1.5-1.5-1.5c-0.8,0-1.5,0.7-1.5,1.5c0,17.7-11.5,18.1-12,18.1
			c-0.8,0-1.5,0.7-1.5,1.5s0.7,1.5,1.5,1.5c2.1,0.2,4.2,0.9,5.9,2.2c0.9,0.6,1.7,1.4,2.3,2.3c-5.8,10.2-9,19.8-9.6,28.7
			s2.4,17.6,8.4,24.2c5.6,6.3,13.6,10.1,22,10.4c0.4,0,0.7,0,1.1,0c6.5,0,12.8-2,18.1-5.7L64,97.2z M23.1,36.2c3.8-2,6.7-5.4,8-9.5
			c0.6,1.7,1.4,3.4,2.5,4.9c0,0,0,0.1,0.1,0.1c1.4,1.9,3.3,3.5,5.4,4.5c-3.8,2-6.7,5.4-8,9.5c-0.5-1.6-1.3-3.1-2.2-4.4
			c0-0.1-0.1-0.2-0.2-0.3C27.3,38.9,25.4,37.3,23.1,36.2z"/>
		<path id="Shape_3_" class="st0" d="M43.4,94.9c-15.2-2.8-16.8-19-16.8-19.7c-0.1-0.8-0.8-1.4-1.6-1.4c-0.8,0.1-1.4,0.8-1.4,1.6
			c0,0.2,1.8,19.2,19.3,22.4c0.1,0,0.2,0,0.3,0c0.8,0,1.4-0.6,1.5-1.4C44.8,95.6,44.2,95,43.4,94.9L43.4,94.9z"/>
	</g>
	<g class="st1">
		<path class="st2" d="M50.9,58.2V45.7l-3.5,3.1v-4.1l3.5-3.1h3.8v16.5H50.9z"/>
		<path class="st2" d="M69.5,55.4c-0.3,0.6-0.7,1.2-1.2,1.6c-0.5,0.4-1.1,0.8-1.7,1c-0.6,0.2-1.3,0.3-2,0.3c-0.7,0-1.3-0.1-2-0.3
			s-1.2-0.5-1.7-1c-0.5-0.4-0.9-1-1.2-1.6c-0.3-0.6-0.4-1.4-0.4-2.2v-6.5c0-0.8,0.1-1.6,0.4-2.2c0.3-0.6,0.7-1.2,1.2-1.6
			c0.5-0.4,1.1-0.8,1.7-1c0.6-0.2,1.3-0.3,2-0.3c0.7,0,1.3,0.1,2,0.3c0.6,0.2,1.2,0.5,1.7,1c0.5,0.4,0.9,1,1.2,1.6
			c0.3,0.6,0.4,1.4,0.4,2.2v6.5C69.9,54,69.8,54.8,69.5,55.4z M66.1,46.7c0-0.6-0.2-1-0.5-1.3C65.4,45.1,65,45,64.6,45
			s-0.8,0.1-1.1,0.4c-0.3,0.3-0.5,0.7-0.5,1.3v6.5c0,0.6,0.2,1,0.5,1.3c0.3,0.3,0.7,0.4,1.1,0.4s0.8-0.1,1.1-0.4
			c0.3-0.3,0.5-0.7,0.5-1.3V46.7z"/>
		<path class="st2" d="M82.3,55.4c-0.3,0.6-0.7,1.2-1.2,1.6c-0.5,0.4-1.1,0.8-1.7,1s-1.3,0.3-2,0.3c-0.7,0-1.3-0.1-2-0.3
			c-0.6-0.2-1.2-0.5-1.7-1c-0.5-0.4-0.9-1-1.2-1.6c-0.3-0.6-0.4-1.4-0.4-2.2v-6.5c0-0.8,0.1-1.6,0.4-2.2c0.3-0.6,0.7-1.2,1.2-1.6
			c0.5-0.4,1.1-0.8,1.7-1c0.6-0.2,1.3-0.3,2-0.3c0.7,0,1.3,0.1,2,0.3c0.6,0.2,1.2,0.5,1.7,1c0.5,0.4,0.9,1,1.2,1.6
			c0.3,0.6,0.4,1.4,0.4,2.2v6.5C82.8,54,82.6,54.8,82.3,55.4z M79,46.7c0-0.6-0.2-1-0.5-1.3c-0.3-0.3-0.7-0.4-1.1-0.4
			s-0.8,0.1-1.1,0.4c-0.3,0.3-0.5,0.7-0.5,1.3v6.5c0,0.6,0.2,1,0.5,1.3c0.3,0.3,0.7,0.4,1.1,0.4s0.8-0.1,1.1-0.4
			c0.3-0.3,0.5-0.7,0.5-1.3V46.7z"/>
		<path class="st2" d="M91.7,48.4c-0.2,0.4-0.5,0.7-0.8,1c-0.3,0.3-0.7,0.5-1.1,0.6c-0.4,0.1-0.9,0.2-1.3,0.2s-0.9-0.1-1.3-0.2
			s-0.8-0.3-1.1-0.6c-0.3-0.3-0.6-0.6-0.8-1C85.1,48,85,47.5,85,47v-2.2c0-0.6,0.1-1,0.3-1.4c0.2-0.4,0.5-0.7,0.8-1
			c0.3-0.3,0.7-0.5,1.1-0.6s0.9-0.2,1.3-0.2s0.9,0.1,1.3,0.2c0.4,0.1,0.8,0.3,1.1,0.6c0.3,0.3,0.6,0.6,0.8,1
			c0.2,0.4,0.3,0.9,0.3,1.4V47C92,47.5,91.9,48,91.7,48.4z M89.3,44.9c0-0.3-0.1-0.6-0.2-0.7C88.9,44,88.7,44,88.5,44
			S88,44,87.9,44.1c-0.2,0.1-0.2,0.4-0.2,0.7v2c0,0.3,0.1,0.6,0.2,0.7s0.3,0.2,0.6,0.2s0.4-0.1,0.6-0.2s0.2-0.4,0.2-0.7V44.9z
			 M91.4,58.2h-2.9l7.8-16.5h2.9L91.4,58.2z M102.4,56.5c-0.2,0.4-0.5,0.7-0.8,1c-0.3,0.3-0.7,0.5-1.1,0.6c-0.4,0.1-0.9,0.2-1.3,0.2
			s-0.9-0.1-1.3-0.2s-0.8-0.3-1.1-0.6c-0.3-0.3-0.6-0.6-0.8-1c-0.2-0.4-0.3-0.9-0.3-1.4v-2.2c0-0.6,0.1-1,0.3-1.4
			c0.2-0.4,0.5-0.7,0.8-1s0.7-0.5,1.1-0.6c0.4-0.1,0.9-0.2,1.3-0.2s0.9,0.1,1.3,0.2c0.4,0.1,0.8,0.3,1.1,0.6c0.3,0.3,0.6,0.6,0.8,1
			c0.2,0.4,0.3,0.9,0.3,1.4v2.2C102.7,55.6,102.6,56.1,102.4,56.5z M100,53c0-0.3-0.1-0.6-0.2-0.7s-0.3-0.2-0.6-0.2
			s-0.4,0.1-0.6,0.2c-0.2,0.1-0.2,0.4-0.2,0.7v2c0,0.3,0.1,0.6,0.2,0.7c0.2,0.1,0.3,0.2,0.6,0.2s0.4-0.1,0.6-0.2
			c0.2-0.1,0.2-0.4,0.2-0.7V53z"/>
	</g>
	<g class="st1">
		<path class="st2" d="M58.1,68.4c-0.2,0.6-0.6,1.1-1,1.6c-0.5,0.5-1,0.8-1.7,1.1c-0.7,0.3-1.4,0.4-2.3,0.4h-2.4v5.6h-3.8V61.5h6.2
			c0.9,0,1.6,0.1,2.3,0.4c0.7,0.3,1.2,0.7,1.7,1.1c0.5,0.5,0.8,1,1,1.6c0.2,0.6,0.3,1.2,0.3,1.9C58.4,67.2,58.3,67.8,58.1,68.4z
			 M54.2,65.4c-0.3-0.3-0.7-0.5-1.2-0.5h-2.2v3.2h2.2c0.5,0,0.9-0.2,1.2-0.5c0.3-0.3,0.4-0.7,0.4-1.1C54.6,66.1,54.4,65.8,54.2,65.4
			z"/>
		<path class="st2" d="M71.8,74c-0.3,0.7-0.7,1.3-1.3,1.8c-0.5,0.5-1.2,0.9-1.9,1.1c-0.7,0.3-1.5,0.4-2.3,0.4
			c-0.8,0-1.6-0.1-2.3-0.4c-0.7-0.3-1.3-0.6-1.9-1.1c-0.5-0.5-1-1.1-1.3-1.8s-0.5-1.5-0.5-2.3V61.5h3.8v10.1c0,0.7,0.2,1.3,0.5,1.7
			c0.4,0.4,0.9,0.6,1.5,0.6c0.6,0,1.2-0.2,1.5-0.6c0.4-0.4,0.6-1,0.6-1.7V61.5h3.8v10.2C72.3,72.5,72.1,73.3,71.8,74z"/>
		<path class="st2" d="M83.1,77.2l-2.8-5.8H79v5.8h-3.8V61.5h6.2c0.9,0,1.6,0.1,2.3,0.4c0.7,0.3,1.2,0.7,1.7,1.1
			c0.5,0.5,0.8,1,1,1.6c0.2,0.6,0.3,1.2,0.3,1.9c0,0.5-0.1,1-0.2,1.5s-0.3,0.8-0.6,1.2c-0.2,0.3-0.5,0.6-0.8,0.9s-0.6,0.4-0.9,0.6
			l3.4,6.5H83.1z M82.5,65.4c-0.3-0.3-0.7-0.5-1.2-0.5H79v3.2h2.2c0.5,0,0.9-0.2,1.2-0.5c0.3-0.3,0.4-0.7,0.4-1.1
			C82.9,66.1,82.7,65.8,82.5,65.4z"/>
		<path class="st2" d="M89.5,77.2V61.5h10.6v3.4h-6.8v2.6h5.8V71h-5.8v2.7h6.8v3.4H89.5z"/>
	</g>
	<g class="st1">
		<path class="st2" d="M57,93.2h-2l-2.2-7.3l-2.2,7.3h-2l-3.2-12.1h2.5l1.9,7.6l2.2-7.6h1.8l2.2,7.6l1.9-7.6h2.5L57,93.2z"/>
		<path class="st2" d="M68.3,93.2L67.6,91h-4.3l-0.7,2.1h-2.5l4.4-12.1h1.9l4.4,12.1H68.3z M65.5,84.6L64,89h3L65.5,84.6z"/>
		<path class="st2" d="M75.7,83.2v10h-2.4v-10h-3.2v-2.1h8.7v2.1H75.7z"/>
		<path class="st2" d="M80.8,93.2V81.1h8v2.1h-5.6V86H88v2.1h-4.8v2.9h5.6v2.1H80.8z"/>
		<path class="st2" d="M97.5,93.2l-2.4-4.8h-1.7v4.8h-2.4V81.1h4.7c2.5,0,3.9,1.7,3.9,3.7c0,1.7-1,2.8-2.2,3.2l2.7,5.2H97.5z
			 M95.7,83.2h-2.2v3.2h2.2c1,0,1.7-0.7,1.7-1.6C97.4,83.8,96.7,83.2,95.7,83.2z"/>
	</g>
</g>
</svg>
