<?xml version="1.0" encoding="utf-8"?>
<!-- Generator: Adobe Illustrator 24.3.0, SVG Export Plug-In . SVG Version: 6.00 Build 0)  -->
<svg version="1.1" id="ICON_SYSTEM_100px_RO_Tech" xmlns="http://www.w3.org/2000/svg" xmlns:xlink="http://www.w3.org/1999/xlink"
	 x="0px" y="0px" viewBox="0 0 120 120" style="enable-background:new 0 0 120 120;" xml:space="preserve">
<style type="text/css">
	.st0{fill:none;}
	.st1{fill:#0755E3;}
	.st2{opacity:0.5;fill:#0C8EFB;}
	.st3{fill:url(#XMLID_2_);}
	.st4{fill:#FFFFFF;}
</style>
<g>
	<path class="st0" d="M61.6,109c0,0-0.1,0-0.1,0c0,0-0.1,0-0.1,0.1c-0.3,0.2-0.5,0.7-0.6,0.9c-0.1,0.2-0.1,0.3-0.2,0.5
		c0,0.1-0.1,0.2-0.1,0.3c0,0,0,0,0,0.1c0,0,0,0,0,0c0,0,0,0,0.1,0.1c0-0.1,0-0.1,0.1-0.2c0,0,0,0,0,0c0-0.1,0-0.1,0.1-0.2
		c0,0,0,0,0,0C60.9,109.9,61.1,109.4,61.6,109C61.6,109,61.6,109,61.6,109z"/>
	<path id="XMLID_296_" class="st1" d="M93.9,65.4c0,4-14.9,7.2-33.2,7.2c-18.3,0-33.2-3.2-33.2-7.2c0-4,14.9-4.1,33.2-4.1
		C79,61.3,93.9,61.4,93.9,65.4z"/>
	<path id="XMLID_293_" class="st2" d="M60.7,107.3c3.4,0,31.9-14,31.9-36c0-19.1,0-31.7,0-36.5c0-4.8-2.6-5.1-5.3-5.8
		c-2.7-0.7-20.9-5.6-26.5-5.6c-5.5,0-23.8,4.9-26.5,5.6c-2.7,0.7-5.4,1-5.4,5.8c0,4.8,0,17.3,0,36.5
		C28.8,93.3,57.3,107.3,60.7,107.3z"/>
	<linearGradient id="XMLID_2_" gradientUnits="userSpaceOnUse" x1="30.9895" y1="65.349" x2="90.3931" y2="65.349">
		<stop  offset="0" style="stop-color:#FFFFFF"/>
		<stop  offset="1" style="stop-color:#FFFFFF"/>
	</linearGradient>
	<path id="XMLID_285_" class="st3" d="M60.7,105.3c-1.7-0.3-9.1-3.6-16.2-9.7C38.4,90.4,31,82,31,71.4V34.2c0-0.6,0.1-1.8,0.5-2.2
		c0.4-0.3,1.3-0.6,2.3-0.8c0.2-0.1,22.1-5.8,27-5.8s26.7,5.7,26.9,5.8c0.9,0.2,1.8,0.5,2.2,0.8c0.4,0.4,0.5,1.5,0.5,2.2v37.2
		c0,10.6-7.3,19-13.5,24.2C69.7,101.7,62.4,105,60.7,105.3z"/>
	<path id="XMLID_284_" class="st4" d="M76.6,95c-7,5.9-14.2,9.1-15.8,9.5c-1.6-0.3-8.9-3.5-15.9-9.5c-6-5.1-13.2-13.3-13.2-23.7v0.3
		c0,10.4,7.2,18.6,13.2,23.7c7,5.9,14.3,9.1,15.9,9.5c1.6-0.3,8.8-3.5,15.8-9.5c6-5.1,13.2-13.3,13.2-23.7v-0.3
		C89.8,81.7,82.6,89.9,76.6,95z"/>
	<g>
		<path class="st1" d="M63.3,44.6h2.5c1.2,0,2-0.3,2.6-0.9c0.6-0.6,0.8-1.3,0.8-2.3c0-0.4-0.1-0.8-0.2-1.2c-0.1-0.4-0.3-0.7-0.6-0.9
			c-0.3-0.3-0.6-0.5-1-0.6c-0.4-0.1-0.9-0.2-1.4-0.2c-0.4,0-0.8,0.1-1.2,0.2c-0.4,0.1-0.7,0.3-1,0.5c-0.3,0.2-0.5,0.5-0.7,0.8
			c-0.2,0.3-0.2,0.7-0.2,1.1h-4.6c0-0.9,0.2-1.8,0.6-2.6c0.4-0.8,0.9-1.4,1.6-2c0.7-0.5,1.5-1,2.4-1.3s1.9-0.4,3-0.4
			c1.2,0,2.2,0.1,3.2,0.4c1,0.3,1.8,0.7,2.5,1.2c0.7,0.5,1.2,1.2,1.6,2c0.4,0.8,0.6,1.7,0.6,2.8c0,0.5-0.1,1-0.2,1.5
			c-0.2,0.5-0.4,0.9-0.7,1.4c-0.3,0.4-0.7,0.8-1.1,1.2c-0.4,0.4-0.9,0.7-1.5,0.9c1.3,0.5,2.3,1.2,2.9,2.1c0.6,0.9,1,2,1,3.3
			c0,1.1-0.2,2-0.6,2.9c-0.4,0.8-1,1.5-1.7,2.1c-0.7,0.6-1.6,1-2.6,1.3c-1,0.3-2.1,0.4-3.3,0.4c-1,0-2-0.1-2.9-0.4
			c-0.9-0.3-1.8-0.7-2.5-1.2c-0.7-0.5-1.3-1.2-1.8-2c-0.5-0.8-0.7-1.8-0.7-2.9h4.6c0,0.4,0.1,0.8,0.3,1.2c0.2,0.4,0.4,0.7,0.7,0.9
			c0.3,0.3,0.7,0.5,1.1,0.6c0.4,0.1,0.9,0.2,1.4,0.2c0.5,0,1-0.1,1.5-0.2c0.4-0.1,0.8-0.4,1.1-0.6c0.3-0.3,0.5-0.6,0.7-1
			c0.2-0.4,0.2-0.8,0.2-1.3c0-0.6-0.1-1.1-0.3-1.6c-0.2-0.4-0.4-0.8-0.8-1.1c-0.3-0.3-0.7-0.5-1.2-0.6c-0.5-0.1-1-0.2-1.6-0.2h-2.5
			V44.6z"/>
	</g>
	<g>
		<path class="st1" d="M53,46.2h3.2v2.3H53v3.7h-2.5v-3.7h-3.3v-2.3h3.3v-3.5H53V46.2z"/>
	</g>
	<g>
		<path class="st1" d="M53.6,92.3h-3v3.1h-1.6v-7.5H54v1.3h-3.4V91h3V92.3z"/>
		<path class="st1" d="M57.7,92.6h-1.2v2.8h-1.6v-7.5h2.8c0.4,0,0.8,0,1.2,0.1c0.3,0.1,0.6,0.2,0.9,0.4c0.2,0.2,0.4,0.4,0.5,0.7
			c0.1,0.3,0.2,0.6,0.2,1c0,0.3,0,0.5-0.1,0.7c-0.1,0.2-0.2,0.4-0.3,0.6c-0.1,0.2-0.3,0.3-0.4,0.4c-0.2,0.1-0.4,0.2-0.6,0.3l1.6,3.1
			v0.1h-1.7L57.7,92.6z M56.4,91.3h1.3c0.2,0,0.4,0,0.5-0.1s0.3-0.1,0.4-0.2c0.1-0.1,0.2-0.2,0.2-0.4c0.1-0.1,0.1-0.3,0.1-0.5
			c0-0.4-0.1-0.6-0.3-0.8c-0.2-0.2-0.5-0.3-0.9-0.3h-1.2V91.3z"/>
		<path class="st1" d="M66.2,92.1h-3v2h3.5v1.2h-5v-7.5h5v1.3h-3.5v1.8h3V92.1z"/>
		<path class="st1" d="M72.1,92.1h-3v2h3.5v1.2h-5v-7.5h5v1.3h-3.5v1.8h3V92.1z"/>
	</g>
	<g>
		<path class="st1" d="M30.3,26.8l-1.1,0.3L28,23l-1.2,0.8l-0.2-0.9l2-1.4l0.1,0L30.3,26.8z"/>
		<path class="st1" d="M33.1,22.8l0.4-2.7l1.2-0.3L34,23.6l0.5,1.9l-1.1,0.3l-0.5-1.9L30.2,21l1.2-0.3L33.1,22.8z"/>
		<path class="st1" d="M39.4,21.7l-2.1,0.6l0.4,1.4l2.5-0.7l0.2,0.9l-3.6,1l-1.5-5.4l3.6-1l0.2,0.9l-2.5,0.7l0.3,1.3l2.1-0.6
			L39.4,21.7z"/>
		<path class="st1" d="M43.8,21.9l-1.9,0.5l-0.1,1.2l-1.2,0.3l0.6-5.9l1-0.3l3.4,4.8l-1.2,0.3L43.8,21.9z M41.9,21.4l1.3-0.4
			L42,19.2L41.9,21.4z"/>
		<path class="st1" d="M47.6,20l-0.9,0.2l0.5,2l-1.1,0.3l-1.4-5.4l2-0.5c0.3-0.1,0.6-0.1,0.9-0.1c0.3,0,0.5,0.1,0.7,0.2
			c0.2,0.1,0.4,0.2,0.5,0.4c0.1,0.2,0.2,0.4,0.3,0.7c0,0.2,0.1,0.4,0.1,0.5c0,0.2,0,0.3-0.1,0.5c-0.1,0.1-0.1,0.3-0.2,0.4
			c-0.1,0.1-0.2,0.2-0.3,0.3l1.7,1.9l0,0.1l-1.2,0.3L47.6,20z M46.5,19.3l0.9-0.2c0.1,0,0.3-0.1,0.4-0.2c0.1-0.1,0.2-0.1,0.2-0.2
			c0.1-0.1,0.1-0.2,0.1-0.3c0-0.1,0-0.2,0-0.3c-0.1-0.3-0.2-0.4-0.4-0.5c-0.2-0.1-0.4-0.1-0.7-0.1l-0.9,0.2L46.5,19.3z"/>
		<path class="st1" d="M56.7,18.3l-0.1-4l1.1-0.2l0,5.7L56.5,20l-1.7-3.5l-0.1,3.8l-1.1,0.2l-2.4-5.2l1.1-0.2l1.6,3.7l0.1-4.1
			l0.9-0.2L56.7,18.3z"/>
		<path class="st1" d="M62.1,18.1l-2,0.1l-0.3,1.2l-1.2,0.1l1.7-5.7l1.1-0.1l2.4,5.4l-1.2,0.1L62.1,18.1z M60.4,17.2l1.4-0.1l-0.8-2
			L60.4,17.2z"/>
		<path class="st1" d="M66.4,17.9l-0.9-0.2l-0.4,2L64,19.5l1.1-5.4l2,0.4c0.3,0.1,0.6,0.2,0.8,0.3c0.2,0.1,0.4,0.3,0.6,0.4
			c0.1,0.2,0.2,0.4,0.3,0.6c0,0.2,0,0.5,0,0.7c0,0.2-0.1,0.4-0.2,0.5c-0.1,0.1-0.2,0.3-0.3,0.4c-0.1,0.1-0.2,0.2-0.4,0.3
			c-0.1,0.1-0.3,0.1-0.5,0.2l0.7,2.5l0,0.1l-1.2-0.2L66.4,17.9z M65.7,16.8l0.9,0.2c0.1,0,0.3,0,0.4,0c0.1,0,0.2-0.1,0.3-0.1
			c0.1-0.1,0.2-0.1,0.2-0.2c0.1-0.1,0.1-0.2,0.1-0.3c0.1-0.3,0-0.5-0.1-0.7c-0.1-0.2-0.3-0.3-0.6-0.4l-0.9-0.2L65.7,16.8z"/>
		<path class="st1" d="M71.3,19.1l-0.9-0.2l-0.5,2l-1.1-0.3l1.4-5.4l2,0.5c0.3,0.1,0.6,0.2,0.8,0.3c0.2,0.1,0.4,0.3,0.5,0.5
			c0.1,0.2,0.2,0.4,0.3,0.6c0,0.2,0,0.5,0,0.7c-0.1,0.2-0.1,0.4-0.2,0.5c-0.1,0.1-0.2,0.3-0.3,0.4c-0.1,0.1-0.2,0.2-0.4,0.2
			C72.7,19,72.6,19,72.4,19l0.6,2.5l0,0.1l-1.2-0.3L71.3,19.1z M70.7,17.9l0.9,0.2c0.1,0,0.3,0.1,0.4,0c0.1,0,0.2,0,0.3-0.1
			c0.1-0.1,0.2-0.1,0.2-0.2c0.1-0.1,0.1-0.2,0.1-0.3c0.1-0.3,0-0.5-0.1-0.7c-0.1-0.2-0.3-0.3-0.6-0.4l-0.9-0.2L70.7,17.9z"/>
		<path class="st1" d="M77,21.5L75,21l-0.7,1l-1.2-0.3l3.5-4.8l1,0.3l0.5,5.9L77,22.7L77,21.5z M75.6,20.2l1.3,0.4l-0.1-2.2
			L75.6,20.2z"/>
		<path class="st1" d="M83,24.5l-1.1-0.3L80.8,20l-1.1,3.5l-1.1-0.3l1.6-5.3l1.1,0.3l1.1,4.2l1.1-3.5l1.1,0.3L83,24.5z"/>
		<path class="st1" d="M89.2,21.6l-1.6-0.5l-1.4,4.4l-1.1-0.3l1.4-4.4l-1.6-0.5l0.3-0.9l4.3,1.3L89.2,21.6z"/>
		<path class="st1" d="M91.3,23.9l1.9-2l1.2,0.4l-2.8,2.8L90.9,27l-1.1-0.4l0.6-1.9l-0.7-3.9l1.2,0.4L91.3,23.9z"/>
	</g>
	<g id="XMLID_124_">
		<g id="XMLID_125_">
			<path id="XMLID_260_" class="st1" d="M50.8,63.9v2.2h-1.3v-2.2l-2.1-3.6h1.2c0.1,0,0.2,0,0.3,0.1c0.1,0.1,0.1,0.1,0.2,0.2
				l0.8,1.7c0.1,0.1,0.1,0.3,0.2,0.4c0.1,0.1,0.1,0.2,0.1,0.3c0-0.1,0.1-0.2,0.1-0.3c0.1-0.1,0.1-0.2,0.2-0.4l0.8-1.7
				c0,0,0-0.1,0.1-0.1c0,0,0.1-0.1,0.1-0.1c0,0,0.1-0.1,0.1-0.1c0,0,0.1,0,0.2,0h1.2L50.8,63.9z"/>
			<path id="XMLID_256_" class="st1" d="M57,60.4v1h-2.4v1.3h1.8v1h-1.8v1.4H57v1h-3.7v-5.8H57z"/>
			<path id="XMLID_156_" class="st1" d="M63.1,66.1h-1c-0.1,0-0.2,0-0.3-0.1c-0.1-0.1-0.1-0.1-0.2-0.2l-0.3-1h-2.2l-0.3,1
				c0,0.1-0.1,0.1-0.2,0.2c-0.1,0.1-0.2,0.1-0.3,0.1h-1l2.2-5.8h1.4L63.1,66.1z M59.4,63.9H61l-0.5-1.6c0-0.1-0.1-0.2-0.1-0.4
				c0-0.1-0.1-0.3-0.1-0.4c0,0.2-0.1,0.3-0.1,0.4c0,0.1-0.1,0.3-0.1,0.4L59.4,63.9z"/>
			<path id="XMLID_151_" class="st1" d="M64.9,64v2.1h-1.3v-5.8h1.9c0.4,0,0.8,0,1.1,0.1c0.3,0.1,0.5,0.2,0.7,0.4
				c0.2,0.2,0.3,0.3,0.4,0.5c0.1,0.2,0.1,0.4,0.1,0.7c0,0.2,0,0.4-0.1,0.5c0,0.2-0.1,0.3-0.2,0.5c-0.1,0.1-0.2,0.3-0.4,0.4
				c-0.1,0.1-0.3,0.2-0.5,0.3c0.1,0,0.2,0.1,0.3,0.2c0.1,0.1,0.1,0.1,0.2,0.2l1.2,2h-1.2c-0.2,0-0.4-0.1-0.5-0.3l-1-1.7
				c0-0.1-0.1-0.1-0.1-0.2c-0.1,0-0.1,0-0.2,0H64.9z M64.9,63.1h0.5c0.2,0,0.3,0,0.5-0.1c0.1,0,0.2-0.1,0.3-0.2
				c0.1-0.1,0.1-0.2,0.2-0.3c0-0.1,0.1-0.2,0.1-0.4c0-0.3-0.1-0.5-0.2-0.6c-0.2-0.1-0.4-0.2-0.8-0.2h-0.5V63.1z"/>
			<path id="XMLID_127_" class="st1" d="M72,61.5c0,0.1-0.1,0.1-0.1,0.1c0,0-0.1,0-0.2,0c-0.1,0-0.1,0-0.2-0.1
				c-0.1,0-0.1-0.1-0.2-0.1c-0.1,0-0.2-0.1-0.3-0.1c-0.1,0-0.2-0.1-0.4-0.1c-0.3,0-0.4,0.1-0.6,0.2c-0.1,0.1-0.2,0.3-0.2,0.4
				c0,0.1,0,0.2,0.1,0.3c0.1,0.1,0.2,0.1,0.3,0.2c0.1,0.1,0.3,0.1,0.4,0.2c0.2,0,0.3,0.1,0.5,0.2c0.2,0.1,0.3,0.1,0.5,0.2
				c0.2,0.1,0.3,0.2,0.4,0.3c0.1,0.1,0.2,0.3,0.3,0.4c0.1,0.2,0.1,0.4,0.1,0.6c0,0.3,0,0.5-0.1,0.7c-0.1,0.2-0.2,0.4-0.4,0.6
				c-0.2,0.2-0.4,0.3-0.6,0.4c-0.3,0.1-0.5,0.1-0.9,0.1c-0.2,0-0.4,0-0.5-0.1c-0.2,0-0.4-0.1-0.5-0.2c-0.2-0.1-0.3-0.1-0.5-0.2
				c-0.2-0.1-0.3-0.2-0.4-0.3l0.4-0.6c0,0,0.1-0.1,0.1-0.1c0.1,0,0.1,0,0.2,0c0.1,0,0.2,0,0.2,0.1c0.1,0.1,0.2,0.1,0.3,0.2
				c0.1,0.1,0.2,0.1,0.3,0.2c0.1,0,0.3,0.1,0.5,0.1c0.2,0,0.4-0.1,0.6-0.2c0.1-0.1,0.2-0.3,0.2-0.5c0-0.1,0-0.2-0.1-0.3
				C71,64,70.9,64,70.8,63.9c-0.1-0.1-0.3-0.1-0.4-0.1c-0.2,0-0.3-0.1-0.5-0.1c-0.2-0.1-0.3-0.1-0.5-0.2c-0.2-0.1-0.3-0.2-0.4-0.3
				c-0.1-0.1-0.2-0.3-0.3-0.5c-0.1-0.2-0.1-0.4-0.1-0.7c0-0.2,0-0.4,0.1-0.6c0.1-0.2,0.2-0.4,0.4-0.5c0.2-0.2,0.4-0.3,0.6-0.4
				c0.2-0.1,0.5-0.1,0.8-0.1c0.2,0,0.3,0,0.5,0c0.2,0,0.3,0.1,0.5,0.1c0.2,0.1,0.3,0.1,0.4,0.2c0.1,0.1,0.2,0.2,0.3,0.3L72,61.5z"/>
		</g>
	</g>
</g>
<path id="XMLID_265_" class="st1" d="M27.5,76.4c0,4,14.9,7.2,33.2,7.2c18.3,0,33.2-3.2,33.2-7.2V64.6c0,4-14.9,7.2-33.2,7.2
	c-18.3,0-33.2-3.2-33.2-7.2V76.4z"/>
<g>
	<path class="st4" d="M37.1,76.6c0-0.1,0-0.2,0-0.3c0-0.1-0.1-0.2-0.1-0.2c-0.1-0.1-0.2-0.2-0.3-0.3c-0.1-0.1-0.3-0.2-0.5-0.3
		c-0.2-0.1-0.5-0.3-0.7-0.4c-0.2-0.2-0.4-0.3-0.5-0.5c-0.1-0.2-0.2-0.4-0.3-0.6c-0.1-0.2-0.1-0.4,0-0.7c0.1-0.2,0.1-0.4,0.3-0.6
		c0.1-0.2,0.3-0.3,0.5-0.4c0.2-0.1,0.5-0.2,0.7-0.2c0.3,0,0.6,0,0.9,0.1c0.3,0.1,0.6,0.2,0.8,0.3c0.2,0.1,0.4,0.3,0.6,0.5
		c0.2,0.2,0.3,0.4,0.3,0.6c0.1,0.2,0.1,0.5,0,0.7c-0.4-0.1-0.8-0.1-1.2-0.2c0-0.1,0-0.2,0-0.3c0-0.1-0.1-0.2-0.1-0.3
		c-0.1-0.1-0.2-0.2-0.3-0.2c-0.1-0.1-0.2-0.1-0.4-0.1c-0.2,0-0.3,0-0.4,0c-0.1,0-0.2,0-0.3,0.1c-0.1,0-0.2,0.1-0.2,0.2
		c-0.1,0.1-0.1,0.2-0.1,0.2c0,0.2,0,0.4,0.2,0.5c0.2,0.2,0.4,0.3,0.8,0.5c0.3,0.2,0.5,0.3,0.8,0.5c0.2,0.2,0.4,0.3,0.5,0.5
		c0.1,0.2,0.2,0.4,0.3,0.6c0,0.2,0.1,0.4,0,0.6c0,0.2-0.1,0.5-0.3,0.6c-0.1,0.2-0.3,0.3-0.5,0.4c-0.2,0.1-0.5,0.2-0.7,0.2
		c-0.3,0-0.6,0-0.9-0.1c-0.2,0-0.4-0.1-0.6-0.2c-0.2-0.1-0.4-0.2-0.5-0.3c-0.2-0.1-0.3-0.2-0.4-0.4c-0.1-0.1-0.2-0.3-0.3-0.4
		c-0.1-0.2-0.1-0.3-0.2-0.5c0-0.2,0-0.4,0-0.6c0.4,0.1,0.8,0.2,1.2,0.3c0,0.2,0,0.3,0,0.4c0,0.1,0.1,0.2,0.2,0.3
		c0.1,0.1,0.2,0.2,0.3,0.2c0.1,0.1,0.3,0.1,0.5,0.1c0.2,0,0.3,0,0.4,0c0.1,0,0.2,0,0.3-0.1c0.1,0,0.2-0.1,0.2-0.2
		C37.1,76.8,37.1,76.7,37.1,76.6z"/>
	<path class="st4" d="M42.8,76.6c-0.8-0.1-1.5-0.2-2.3-0.4c-0.1,0.5-0.2,1-0.2,1.5c0.9,0.2,1.8,0.3,2.7,0.4c0,0.3-0.1,0.6-0.1,0.9
		c-1.3-0.2-2.6-0.4-4-0.6c0.3-1.9,0.7-3.7,1-5.6c1.3,0.2,2.5,0.4,3.8,0.6c0,0.3-0.1,0.6-0.1,0.9c-0.9-0.1-1.8-0.3-2.6-0.4
		c-0.1,0.4-0.1,0.9-0.2,1.3c0.8,0.1,1.5,0.2,2.3,0.4C42.9,76,42.8,76.3,42.8,76.6z"/>
	<path class="st4" d="M46,77.4c-0.3,0-0.6-0.1-1-0.1c-0.1,0.7-0.2,1.4-0.3,2.1c-0.4-0.1-0.8-0.1-1.2-0.2c0.3-1.9,0.5-3.7,0.8-5.6
		c0.7,0.1,1.4,0.2,2.1,0.3c0.3,0,0.6,0.1,0.9,0.2c0.3,0.1,0.5,0.2,0.6,0.4c0.2,0.2,0.3,0.4,0.4,0.6c0.1,0.2,0.1,0.5,0.1,0.7
		c0,0.2-0.1,0.4-0.1,0.5c-0.1,0.2-0.1,0.3-0.3,0.4c-0.1,0.1-0.2,0.2-0.4,0.3c-0.1,0.1-0.3,0.1-0.5,0.2c0.3,0.8,0.7,1.6,1,2.4
		c0,0,0,0,0,0.1c-0.4,0-0.9-0.1-1.3-0.1C46.6,78.9,46.3,78.1,46,77.4z M45.2,76.3c0.3,0,0.6,0.1,1,0.1c0.2,0,0.3,0,0.4,0
		c0.1,0,0.2-0.1,0.3-0.1c0.1-0.1,0.2-0.1,0.2-0.2c0.1-0.1,0.1-0.2,0.1-0.3c0-0.3,0-0.5-0.2-0.7c-0.1-0.2-0.4-0.3-0.7-0.3
		c-0.3,0-0.6-0.1-0.9-0.1C45.3,75.2,45.2,75.8,45.2,76.3z"/>
	<path class="st4" d="M51.1,78.6c0.6-1.4,1.1-2.8,1.6-4.2c0.4,0,0.9,0.1,1.3,0.1c-0.8,1.8-1.5,3.7-2.4,5.5c-0.4,0-0.9-0.1-1.3-0.1
		c-0.5-1.9-1-3.9-1.5-5.8c0.4,0,0.9,0.1,1.3,0.1C50.5,75.7,50.8,77.1,51.1,78.6z"/>
	<path class="st4" d="M55.6,80.2c-0.4,0-0.8,0-1.2-0.1c0.1-1.9,0.2-3.8,0.3-5.7c0.4,0,0.8,0,1.2,0C55.8,76.4,55.7,78.3,55.6,80.2z"
		/>
	<path class="st4" d="M61.4,78.4c0,0.3-0.1,0.6-0.2,0.8c-0.1,0.2-0.3,0.5-0.5,0.6c-0.2,0.2-0.4,0.3-0.7,0.4c-0.3,0.1-0.6,0.1-1,0.1
		c-0.4,0-0.7-0.1-1-0.2c-0.3-0.1-0.6-0.3-0.8-0.6c-0.2-0.2-0.4-0.5-0.5-0.9c-0.1-0.3-0.1-0.7-0.1-1.1c0-0.1,0-0.2,0-0.4
		c0-0.4,0.1-0.8,0.2-1.1c0.1-0.3,0.3-0.6,0.5-0.8c0.2-0.2,0.5-0.4,0.8-0.5c0.3-0.1,0.6-0.2,1-0.2c0.4,0,0.7,0.1,0.9,0.2
		c0.3,0.1,0.5,0.2,0.7,0.4c0.2,0.2,0.3,0.4,0.5,0.6c0.1,0.2,0.2,0.5,0.2,0.8c-0.4,0-0.8,0-1.2,0c0-0.2,0-0.3-0.1-0.4
		c0-0.1-0.1-0.2-0.2-0.3c-0.1-0.1-0.2-0.2-0.3-0.2c-0.1,0-0.3-0.1-0.5-0.1c-0.4,0-0.7,0.1-0.9,0.4c-0.2,0.3-0.3,0.7-0.3,1.3
		c0,0.1,0,0.3,0,0.4c0,0.3,0,0.5,0.1,0.8c0,0.2,0.1,0.4,0.2,0.6c0.1,0.1,0.2,0.3,0.4,0.3c0.2,0.1,0.3,0.1,0.6,0.1
		c0.2,0,0.4,0,0.5-0.1c0.1,0,0.3-0.1,0.4-0.2c0.1-0.1,0.2-0.2,0.2-0.3c0.1-0.1,0.1-0.3,0.1-0.4C60.6,78.4,61,78.4,61.4,78.4z"/>
	<path class="st4" d="M65.7,77.7c-0.8,0-1.5,0.1-2.3,0.1c0,0.5,0,1,0,1.5c0.9,0,1.8-0.1,2.8-0.1c0,0.3,0,0.6,0,0.9
		c-1.3,0.1-2.7,0.1-4,0.1c0-1.9-0.1-3.8-0.1-5.7c1.3,0,2.5-0.1,3.8-0.1c0,0.3,0,0.6,0,0.9c-0.9,0-1.8,0.1-2.7,0.1c0,0.4,0,0.9,0,1.3
		c0.8,0,1.5-0.1,2.3-0.1C65.7,77.1,65.7,77.4,65.7,77.7z"/>
	<path class="st4" d="M72.3,78.5c-0.7,0.1-1.4,0.1-2.1,0.2c-0.1,0.4-0.2,0.8-0.3,1.2c-0.4,0-0.9,0.1-1.3,0.1
		c0.6-1.9,1.2-3.9,1.7-5.8c0.4,0,0.7-0.1,1.1-0.1c0.9,1.8,1.8,3.6,2.8,5.4c-0.4,0.1-0.9,0.1-1.3,0.1C72.7,79.3,72.5,78.9,72.3,78.5z
		 M70.4,77.7c0.5,0,1-0.1,1.5-0.1c-0.3-0.7-0.6-1.4-0.9-2C70.8,76.3,70.6,77,70.4,77.7z"/>
	<path class="st4" d="M75.6,73.6c0.7,1.3,1.4,2.6,2.1,3.9c0.3-1.4,0.6-2.9,0.8-4.3c0.5-0.1,1-0.2,1.5-0.3c0.3,1.9,0.6,3.7,1,5.6
		c-0.4,0.1-0.8,0.1-1.2,0.2c-0.1-0.5-0.2-1-0.2-1.5c-0.1-0.9-0.2-1.8-0.3-2.7c-0.3,1.5-0.6,2.9-0.9,4.4c-0.3,0-0.6,0.1-0.8,0.1
		c-0.7-1.3-1.4-2.6-2.1-4c0.2,0.9,0.3,1.8,0.5,2.6c0.1,0.5,0.1,1,0.2,1.5c-0.4,0.1-0.8,0.1-1.2,0.2c-0.2-1.9-0.5-3.7-0.7-5.6
		C74.5,73.7,75,73.7,75.6,73.6z"/>
	<path class="st4" d="M86.2,75.5c0,0.3,0,0.6,0,0.8c-0.1,0.3-0.2,0.5-0.3,0.7c-0.2,0.2-0.4,0.4-0.6,0.5c-0.3,0.2-0.6,0.3-0.9,0.3
		c-0.4,0.1-0.7,0.1-1.1,0c-0.3-0.1-0.6-0.2-0.9-0.4c-0.3-0.2-0.5-0.4-0.6-0.8c-0.2-0.3-0.3-0.7-0.4-1.1c0-0.1,0-0.2-0.1-0.4
		c-0.1-0.4-0.1-0.8,0-1.1c0.1-0.4,0.2-0.7,0.3-0.9c0.2-0.3,0.4-0.5,0.6-0.7c0.3-0.2,0.6-0.3,0.9-0.4c0.3-0.1,0.7-0.1,1,0
		c0.3,0,0.5,0.1,0.8,0.3c0.2,0.1,0.4,0.3,0.6,0.5c0.2,0.2,0.3,0.5,0.4,0.7c-0.4,0.1-0.8,0.2-1.2,0.3c0-0.2-0.1-0.3-0.2-0.4
		c-0.1-0.1-0.2-0.2-0.3-0.3c-0.1-0.1-0.2-0.1-0.4-0.1c-0.1,0-0.3,0-0.5,0c-0.4,0.1-0.7,0.3-0.8,0.6c-0.1,0.3-0.2,0.8,0,1.4
		c0,0.1,0,0.2,0.1,0.4c0.1,0.3,0.1,0.5,0.2,0.7c0.1,0.2,0.2,0.4,0.3,0.5c0.1,0.1,0.3,0.2,0.4,0.3c0.2,0,0.4,0,0.6,0
		c0.2,0,0.3-0.1,0.5-0.2c0.1-0.1,0.2-0.2,0.3-0.3c0.1-0.1,0.1-0.2,0.1-0.4c0-0.1,0-0.3,0-0.5C85.4,75.7,85.8,75.6,86.2,75.5z"/>
</g>
</svg>
