<?xml version="1.0" encoding="utf-8"?>
<!-- Generator: Adobe Illustrator 24.3.0, SVG Export Plug-In . SVG Version: 6.00 Build 0)  -->
<svg version="1.1" id="Layer_1" xmlns="http://www.w3.org/2000/svg" xmlns:xlink="http://www.w3.org/1999/xlink" x="0px" y="0px"
	 viewBox="0 0 120 120" style="enable-background:new 0 0 120 120;" xml:space="preserve">
<style type="text/css">
	.st0{opacity:0.5;enable-background:new    ;}
	.st1{fill:#0C8EFB;}
	.st2{fill:none;stroke:#0755E3;stroke-width:2;stroke-linecap:round;stroke-miterlimit:10;}
</style>
<g>
	<g class="st0">
		<path class="st1" d="M102.9,31.5c-0.3-0.4-0.7-0.6-1.2-0.6H85.2c0.5-6.1,0.3-10.6,0.3-11.1c0-0.8-0.7-1.4-1.5-1.4H35.7
			c-0.8,0-1.5,0.6-1.5,1.4c0,0.5-0.2,5,0.3,11.1H18.3c-0.5,0-0.9,0.2-1.2,0.6c-0.3,0.4-0.4,0.9-0.2,1.3c0.3,1,7.5,23.7,30.2,34.2
			c0.1,0,0.2,0.1,0.3,0.1l6.1,1.5l0,0c0.6,0.2,1.2,0.3,1.8,0.4c-1.2,9.8-4.2,15.4-5.3,17.1H37.5c-0.8,0-1.5,0.7-1.5,1.5v12.5
			c0,0.8,0.7,1.5,1.5,1.5H82c0.8,0,1.5-0.7,1.5-1.5V87.6c0-0.8-0.7-1.5-1.5-1.5H69.7c-1.1-1.7-4.1-7.3-5.3-17.2
			c0.7-0.1,1.4-0.3,2.1-0.5v0.1l6.1-1.5c0.1,0,0.2-0.1,0.3-0.1c22.7-10.6,29.9-33.3,30.2-34.2C103.3,32.4,103.2,31.9,102.9,31.5z
			 M37.1,21.3h45.3c0,6.2-0.4,30.6-10.7,40.7c-3.2,3.1-7,4.5-11.5,4.2c-0.2,0-0.3,0-0.5,0c-0.1,0-0.2,0-0.4,0h-0.1
			c-4.5,0.3-8.3-1.1-11.5-4.2C37.6,52,37.1,27.5,37.1,21.3z M20.5,33.9h14.2c0.9,9.1,3.2,20.6,9,28C29.2,53.1,22.5,39,20.5,33.9z
			 M58,71.2l0.3,14.9h-4.8C54.9,83.5,56.9,78.6,58,71.2z M80.6,98.7H39v-9.5h41.5v9.5H80.6z M61.3,86.2l0.3-15.7
			c1,7.8,3.2,12.9,4.6,15.7H61.3z M75.5,62.3c6-7.3,8.4-19.1,9.4-28.4h14.7C97.5,39.1,90.5,53.6,75.5,62.3z"/>
	</g>
	<polygon class="st2" points="60,26.5 64.4,35.5 74.4,36.9 67.2,43.9 68.9,53.8 60,49.1 51.1,53.8 52.8,43.9 45.6,36.9 55.6,35.5 	
		"/>
</g>
</svg>
