<?xml version="1.0" encoding="utf-8"?>
<!-- Generator: Adobe Illustrator 24.3.0, SVG Export Plug-In . SVG Version: 6.00 Build 0)  -->
<svg version="1.1" id="ICON_SYSTEM_100px_RO_Tech" xmlns="http://www.w3.org/2000/svg" xmlns:xlink="http://www.w3.org/1999/xlink"
	 x="0px" y="0px" viewBox="0 0 120 120" style="enable-background:new 0 0 120 120;" xml:space="preserve">
<style type="text/css">
	.st0{fill:#0755E3;stroke:#0755E3;stroke-miterlimit:10;}
	.st1{fill:none;stroke:#0755E3;stroke-width:3;stroke-linecap:round;stroke-miterlimit:10;}
	.st2{opacity:0.5;fill:#0C8EFB;}
</style>
<path id="Shape_3_" class="st0" d="M80.9,67.8c0.2,0.2,0.6,0.2,0.8,0l7.7-7.1c0.3-0.2,0.3-0.6,0-0.9c-0.2-0.3-0.6-0.3-0.9,0
	l-7.3,6.7l-2.1-1.6c-0.3-0.2-0.7-0.2-0.9,0.1c-0.2,0.3-0.2,0.7,0.1,0.9L80.9,67.8z"/>
<path class="st1" d="M96.7,24.9H70.6v5.6h2v61c0,0,0.2,10.7,10.7,11.1v0c0.1,0,0.2,0,0.3,0c0.1,0,0.2,0,0.3,0v0
	c10.5-0.4,10.7-11.1,10.7-11.1v-61h2V24.9z"/>
<line class="st1" x1="72.7" y1="30.5" x2="94.7" y2="30.5"/>
<path class="st2" d="M65.9,97.4c-5,3.5-11.1,5.4-17.3,5.2c-7.6-0.3-14.8-3.7-19.9-9.4c-5.4-6-8.2-13.9-7.6-22
	c0.5-8,3.4-16.7,8.4-25.9c1.4,3.4,2.1,7,2,10.7c0,0.8,0.7,1.5,1.5,1.5s1.5-0.7,1.5-1.5c0-17.7,11.6-18.1,12-18.1
	c0.8,0,1.5-0.7,1.5-1.5c0-0.8-0.7-1.5-1.5-1.5c-2.1-0.2-4.2-0.9-5.9-2.2c-0.7-0.5-1.3-1.1-1.9-1.8c3.3-4.4,6.9-8.6,10.8-12.6
	c5.6,5.7,10.6,12,14.9,18.6l1-4.1c-3.3-4.8-7.8-10.4-13.8-16.6c-0.6-0.6-1.3-0.9-2.1-0.9h0c-0.8,0-1.6,0.3-2.1,0.9
	C43.7,20,40.2,24.1,37,28.4c-1.7-3.6-2.6-7.6-2.4-11.6c0-0.8-0.7-1.5-1.5-1.5s-1.5,0.7-1.5,1.5c0,17.7-11.5,18.1-12,18.1
	c-0.8,0-1.5,0.7-1.5,1.5c0,0.8,0.7,1.5,1.5,1.5c2.1,0.2,4.2,0.9,5.9,2.2c0.9,0.6,1.7,1.4,2.3,2.3c-5.8,10.2-9,19.8-9.6,28.7
	c-0.6,8.9,2.4,17.6,8.4,24.2c5.6,6.3,13.6,10.1,22,10.4c0.4,0,0.7,0,1.1,0c6.5,0,12.8-2,18.1-5.7L65.9,97.4z M25,36.4
	c3.8-2,6.7-5.4,8-9.5c0.6,1.7,1.4,3.4,2.5,4.9c0,0,0,0.1,0.1,0.1c1.4,1.9,3.3,3.5,5.4,4.5c-3.8,2-6.7,5.4-8,9.5
	c-0.5-1.6-1.3-3.1-2.2-4.4c0-0.1-0.1-0.2-0.2-0.3C29.2,39.1,27.3,37.5,25,36.4z"/>
<path id="Shape_2_" class="st2" d="M45.3,95.1c-15.2-2.8-16.8-19-16.8-19.7c-0.1-0.8-0.8-1.4-1.6-1.4c-0.8,0.1-1.4,0.8-1.4,1.6
	c0,0.2,1.8,19.2,19.3,22.4c0.1,0,0.2,0,0.3,0c0.8,0,1.4-0.6,1.5-1.4S46.1,95.2,45.3,95.1L45.3,95.1z"/>
</svg>
