<?xml version="1.0" encoding="utf-8"?>
<!-- Generator: Adobe Illustrator 24.3.0, SVG Export Plug-In . SVG Version: 6.00 Build 0)  -->
<svg version="1.1" id="Layer_1" xmlns="http://www.w3.org/2000/svg" xmlns:xlink="http://www.w3.org/1999/xlink" x="0px" y="0px"
	 viewBox="0 0 120 120" style="enable-background:new 0 0 120 120;" xml:space="preserve">
<style type="text/css">
	.st0{fill:none;stroke:#0755E3;stroke-width:2;stroke-miterlimit:10;}
	.st1{opacity:0.5;fill:#0C8EFB;enable-background:new    ;}
	
		.st2{opacity:0.5;fill:none;stroke:#0C8EFB;stroke-width:1.5;stroke-linecap:round;stroke-linejoin:round;stroke-miterlimit:10;enable-background:new    ;}
	.st3{fill:none;stroke:#0755E3;stroke-width:2;stroke-linecap:round;stroke-linejoin:round;stroke-miterlimit:10;}
	.st4{fill:none;stroke:#0755E3;stroke-width:2;stroke-linecap:round;stroke-miterlimit:10;}
	.st5{enable-background:new    ;}
	.st6{fill:#0755E3;}
	.st7{opacity:0.5;enable-background:new    ;}
	.st8{fill:#0C8EFB;}
</style>
<g>
	<g>
		<path class="st0" d="M61.3,67.9c-2.7-2.6-6.5-4.3-10.8-4.3s-8,1.6-10.8,4.3c-2.7,2.7-4.4,6.4-4.4,10.4c0,4.1,1.7,7.8,4.4,10.4
			s6.5,4.3,10.8,4.3s8-1.6,10.8-4.3c2.7-2.6,4.4-6.3,4.4-10.4C65.7,74.3,64,70.6,61.3,67.9z"/>
		<path class="st1" d="M37.8,87.3c0.4,0.7,1.1,1.3,1.6,1.9l0,0l-5.1,4.2c-0.2,0.2-0.6,0.3-0.8,0.2c-0.3,0-0.7-0.2-0.8-0.4
			c-0.2-0.2-0.3-0.6-0.3-0.8c0.1-0.3,0.2-0.7,0.5-0.8L37.8,87.3z"/>
		<path class="st1" d="M63.5,87.3c-0.5,0.7-1.1,1.3-1.6,1.9l0,0l5,4.2c0.3,0.2,0.6,0.3,0.9,0.2c0.3,0,0.6-0.2,0.8-0.4
			c0.2-0.2,0.3-0.6,0.2-0.8c0-0.3-0.2-0.7-0.4-0.8L63.5,87.3z"/>
		<path class="st1" d="M36.8,92.7c0.5,1.1,0.7,2.3,0.7,3.5c0,4.7-3.9,8.7-8.7,8.7s-8.7-3.9-8.7-8.7s3.9-8.7,8.7-8.7
			c1.8,0,3.6,0.6,5,1.6l1.3-1.1c-1.7-1.3-3.9-2.1-6.2-2.1c-5.6,0-10.2,4.5-10.2,10.2c0,5.6,4.5,10.2,10.2,10.2s10.2-4.5,10.2-10.2
			c0-1.7-0.4-3.2-1.1-4.5L36.8,92.7z"/>
		<path class="st1" d="M37.8,87.3c0.4,0.7,1.1,1.3,1.6,1.9l0,0l-5.1,4.2c-0.2,0.2-0.6,0.3-0.8,0.2c-0.3,0-0.7-0.2-0.8-0.4
			c-0.2-0.2-0.3-0.6-0.3-0.8c0.1-0.3,0.2-0.7,0.5-0.8L37.8,87.3z"/>
		<path class="st2" d="M30.5,102.6c-4.1,0-7.4-3.3-7.4-7.4"/>
		<path class="st1" d="M64.3,92.7c-0.5,1.1-0.7,2.3-0.7,3.5c0,4.7,3.9,8.7,8.7,8.7s8.7-3.9,8.7-8.7s-3.9-8.7-8.7-8.7
			c-1.8,0-3.6,0.6-5,1.6L66,88c1.7-1.3,3.9-2.1,6.2-2.1c5.6,0,10.2,4.5,10.2,10.2c0,5.6-4.5,10.2-10.2,10.2
			c-5.7,0-10.2-4.5-10.2-10.1c0-1.7,0.4-3.2,1.1-4.5L64.3,92.7z"/>
		<path class="st2" d="M71.2,102.1c4.1,0,7.4-3.3,7.4-7.4"/>
		<path class="st3" d="M53.6,88.7c4.1,0,7.4-3.3,7.4-7.4"/>
	</g>
	<line class="st4" x1="19.5" y1="58.5" x2="19.5" y2="16.4"/>
	<g class="st5">
		<path class="st6" d="M31.1,27.7l-1.9-3.9h-0.9v3.9h-2.6V17.3h4.2c0.6,0,1.1,0.1,1.5,0.3c0.4,0.2,0.8,0.4,1.1,0.8
			c0.3,0.3,0.5,0.7,0.7,1.1c0.2,0.4,0.2,0.8,0.2,1.3c0,0.4,0,0.7-0.1,1c-0.1,0.3-0.2,0.6-0.4,0.8c-0.2,0.2-0.3,0.4-0.6,0.6
			s-0.4,0.3-0.6,0.4l2.3,4.4H31.1z M30.6,19.9c-0.2-0.2-0.5-0.3-0.8-0.3h-1.5v2.1h1.5c0.4,0,0.6-0.1,0.8-0.3
			c0.2-0.2,0.3-0.5,0.3-0.7C30.9,20.4,30.8,20.1,30.6,19.9z"/>
		<path class="st6" d="M35.4,27.7V17.3h7.1v2.3h-4.5v1.8h3.9v2.3h-3.9v1.8h4.5v2.3H35.4z"/>
		<path class="st6" d="M48.9,19.6v8.2h-2.6v-8.2h-2.6v-2.3h7.7v2.3H48.9z"/>
		<path class="st6" d="M57.9,27.7l-0.5-1.6h-3.2l-0.5,1.6H51l3.8-10.5h2l3.8,10.5H57.9z M55.9,21.2L54.9,24h1.8L55.9,21.2z"/>
		<path class="st6" d="M61.7,27.7V17.3h2.6v10.5H61.7z"/>
		<path class="st6" d="M72.3,27.7l-3.4-5.3v5.3h-2.6V17.3h2.3l3.4,5.3v-5.3h2.6v10.5H72.3z"/>
		<path class="st6" d="M83.4,25.9c-0.2,0.4-0.5,0.8-0.9,1c-0.4,0.3-0.8,0.5-1.3,0.6c-0.5,0.1-1,0.2-1.6,0.2c-0.8,0-1.5-0.1-2.2-0.3
			c-0.7-0.2-1.3-0.6-1.8-1.1l1.6-1.6c0.3,0.3,0.6,0.5,1.1,0.6c0.4,0.1,0.9,0.2,1.3,0.2c1,0,1.5-0.3,1.5-0.9c0-0.3-0.1-0.5-0.2-0.6
			c-0.1-0.1-0.4-0.2-0.7-0.3L79,23.5c-0.9-0.1-1.6-0.4-2.1-0.9c-0.5-0.5-0.7-1.2-0.7-2.1c0-0.5,0.1-0.9,0.3-1.3
			c0.2-0.4,0.4-0.8,0.8-1c0.3-0.3,0.7-0.5,1.2-0.7c0.5-0.2,1-0.3,1.6-0.3c0.8,0,1.4,0.1,2,0.3c0.6,0.2,1.1,0.5,1.5,1L81.9,20
			c-0.2-0.2-0.3-0.3-0.5-0.4c-0.2-0.1-0.4-0.1-0.5-0.2c-0.2,0-0.3-0.1-0.5-0.1c-0.2,0-0.3,0-0.4,0c-0.2,0-0.4,0-0.6,0.1
			s-0.3,0.1-0.4,0.2c-0.1,0.1-0.2,0.2-0.2,0.3c0,0.1-0.1,0.2-0.1,0.3c0,0.1,0,0.1,0,0.2c0,0.1,0.1,0.2,0.2,0.3
			c0.1,0.1,0.2,0.1,0.3,0.2c0.1,0.1,0.3,0.1,0.4,0.1l1.3,0.2c0.9,0.1,1.6,0.4,2.1,0.9c0.3,0.3,0.5,0.6,0.6,1
			c0.1,0.4,0.2,0.8,0.2,1.3C83.7,25.1,83.6,25.5,83.4,25.9z"/>
	</g>
	<g class="st7">
		<path class="st8" d="M25.8,41.7V31.2h7.1v2.3h-4.5v1.8h3.9v2.3h-3.9v1.8h4.5v2.3H25.8z"/>
		<path class="st8" d="M41.4,39.9c-0.2,0.4-0.5,0.8-0.9,1c-0.4,0.3-0.8,0.5-1.3,0.6c-0.5,0.1-1,0.2-1.6,0.2c-0.8,0-1.5-0.1-2.2-0.3
			c-0.7-0.2-1.3-0.6-1.8-1.1l1.6-1.6c0.3,0.3,0.6,0.5,1.1,0.6c0.4,0.1,0.9,0.2,1.3,0.2c1,0,1.5-0.3,1.5-0.9c0-0.3-0.1-0.5-0.2-0.6
			c-0.1-0.1-0.4-0.2-0.7-0.3l-1.3-0.2c-0.9-0.1-1.6-0.4-2.1-0.9c-0.5-0.5-0.7-1.2-0.7-2.1c0-0.5,0.1-0.9,0.3-1.3
			c0.2-0.4,0.4-0.8,0.8-1c0.3-0.3,0.7-0.5,1.2-0.7c0.5-0.2,1-0.3,1.6-0.3c0.8,0,1.4,0.1,2,0.3c0.6,0.2,1.1,0.5,1.5,1L40,34
			c-0.2-0.2-0.3-0.3-0.5-0.4c-0.2-0.1-0.4-0.1-0.5-0.2s-0.3-0.1-0.5-0.1c-0.2,0-0.3,0-0.4,0c-0.2,0-0.4,0-0.6,0.1
			c-0.2,0.1-0.3,0.1-0.4,0.2c-0.1,0.1-0.2,0.2-0.2,0.3c0,0.1-0.1,0.2-0.1,0.3c0,0.1,0,0.1,0,0.2s0.1,0.2,0.2,0.3
			c0.1,0.1,0.2,0.1,0.3,0.2c0.1,0.1,0.3,0.1,0.4,0.1l1.3,0.2c0.9,0.1,1.6,0.4,2.1,0.9c0.3,0.3,0.5,0.6,0.6,1
			c0.1,0.4,0.2,0.8,0.2,1.3C41.8,39,41.6,39.5,41.4,39.9z"/>
		<path class="st8" d="M50.2,39.9c-0.2,0.4-0.5,0.8-0.9,1c-0.4,0.3-0.8,0.5-1.3,0.6c-0.5,0.1-1,0.2-1.6,0.2c-0.8,0-1.5-0.1-2.2-0.3
			c-0.7-0.2-1.3-0.6-1.8-1.1l1.6-1.6c0.3,0.3,0.6,0.5,1.1,0.6c0.4,0.1,0.9,0.2,1.3,0.2c1,0,1.5-0.3,1.5-0.9c0-0.3-0.1-0.5-0.2-0.6
			c-0.1-0.1-0.4-0.2-0.7-0.3l-1.3-0.2c-0.9-0.1-1.6-0.4-2.1-0.9C43.2,36,43,35.3,43,34.4c0-0.5,0.1-0.9,0.3-1.3
			c0.2-0.4,0.4-0.8,0.8-1c0.3-0.3,0.7-0.5,1.2-0.7c0.5-0.2,1-0.3,1.6-0.3c0.8,0,1.4,0.1,2,0.3c0.6,0.2,1.1,0.5,1.5,1L48.7,34
			c-0.2-0.2-0.3-0.3-0.5-0.4c-0.2-0.1-0.4-0.1-0.5-0.2s-0.3-0.1-0.5-0.1c-0.2,0-0.3,0-0.4,0c-0.2,0-0.4,0-0.6,0.1
			c-0.2,0.1-0.3,0.1-0.4,0.2c-0.1,0.1-0.2,0.2-0.2,0.3c0,0.1-0.1,0.2-0.1,0.3c0,0.1,0,0.1,0,0.2s0.1,0.2,0.2,0.3
			c0.1,0.1,0.2,0.1,0.3,0.2c0.1,0.1,0.3,0.1,0.4,0.1l1.3,0.2c0.9,0.1,1.6,0.4,2.1,0.9c0.3,0.3,0.5,0.6,0.6,1
			c0.1,0.4,0.2,0.8,0.2,1.3C50.5,39,50.4,39.5,50.2,39.9z"/>
		<path class="st8" d="M52.2,41.7V31.2h7.1v2.3h-4.5v1.8h3.9v2.3h-3.9v1.8h4.5v2.3H52.2z"/>
		<path class="st8" d="M67.1,41.7l-3.4-5.3v5.3h-2.6V31.2h2.3l3.4,5.3v-5.3h2.6v10.5H67.1z"/>
		<path class="st8" d="M76,33.5v8.2h-2.6v-8.2h-2.6v-2.3h7.7v2.3H76z"/>
		<path class="st8" d="M80.1,41.7V31.2h2.6v10.5H80.1z"/>
		<path class="st8" d="M90.6,41.7l-0.5-1.6h-3.2l-0.5,1.6h-2.7l3.8-10.5h2l3.8,10.5H90.6z M88.6,35.2L87.6,38h1.8L88.6,35.2z"/>
		<path class="st8" d="M94.4,41.7V31.2h2.6v8.2h4.4v2.3H94.4z"/>
	</g>
	<g class="st5">
		<path class="st6" d="M33,55.7v-5l-1.5,2.6h-1.6l-1.5-2.6v5h-2.6V45.2h2.5l2.4,4.6l2.4-4.6h2.5v10.5H33z"/>
		<path class="st6" d="M37.7,55.7V45.2h2.6v10.5H37.7z"/>
		<path class="st6" d="M48.3,55.7l-3.4-5.3v5.3h-2.6V45.2h2.3l3.4,5.3v-5.3h2.6v10.5H48.3z"/>
		<path class="st6" d="M52.7,55.7V45.2h7.1v2.3h-4.5v1.8h3.9v2.3h-3.9v1.8h4.5v2.3H52.7z"/>
		<path class="st6" d="M66.9,55.7l-1.9-3.9h-0.9v3.9h-2.6V45.2h4.2c0.6,0,1.1,0.1,1.5,0.3c0.4,0.2,0.8,0.4,1.1,0.8
			c0.3,0.3,0.5,0.7,0.7,1.1c0.2,0.4,0.2,0.8,0.2,1.3c0,0.4,0,0.7-0.1,1c-0.1,0.3-0.2,0.6-0.4,0.8c-0.2,0.2-0.3,0.4-0.6,0.6
			c-0.2,0.2-0.4,0.3-0.6,0.4l2.3,4.4H66.9z M66.5,47.9c-0.2-0.2-0.5-0.3-0.8-0.3h-1.5v2.1h1.5c0.4,0,0.6-0.1,0.8-0.3
			c0.2-0.2,0.3-0.5,0.3-0.7C66.8,48.3,66.7,48.1,66.5,47.9z"/>
		<path class="st6" d="M77.1,55.7l-0.5-1.6h-3.2l-0.5,1.6h-2.7L74,45.2h2l3.8,10.5H77.1z M75,49.2L74.1,52h1.8L75,49.2z"/>
		<path class="st6" d="M80.8,55.7V45.2h2.6v8.2h4.4v2.3H80.8z"/>
		<path class="st6" d="M96,53.9c-0.2,0.4-0.5,0.8-0.9,1c-0.4,0.3-0.8,0.5-1.3,0.6c-0.5,0.1-1,0.2-1.6,0.2c-0.8,0-1.5-0.1-2.2-0.3
			s-1.3-0.6-1.8-1.1l1.6-1.6c0.3,0.3,0.6,0.5,1.1,0.6c0.4,0.1,0.9,0.2,1.3,0.2c1,0,1.5-0.3,1.5-0.9c0-0.3-0.1-0.5-0.2-0.6
			c-0.1-0.1-0.4-0.2-0.7-0.3l-1.3-0.2c-0.9-0.1-1.6-0.4-2.1-0.9c-0.5-0.5-0.7-1.2-0.7-2.1c0-0.5,0.1-0.9,0.3-1.3
			c0.2-0.4,0.4-0.8,0.8-1c0.3-0.3,0.7-0.5,1.2-0.7s1-0.3,1.6-0.3c0.8,0,1.4,0.1,2,0.3c0.6,0.2,1.1,0.5,1.5,1L94.6,48
			c-0.2-0.2-0.3-0.3-0.5-0.4c-0.2-0.1-0.4-0.1-0.5-0.2c-0.2,0-0.3-0.1-0.5-0.1s-0.3,0-0.4,0c-0.2,0-0.4,0-0.6,0.1
			c-0.2,0.1-0.3,0.1-0.4,0.2c-0.1,0.1-0.2,0.2-0.2,0.3c0,0.1-0.1,0.2-0.1,0.3c0,0.1,0,0.1,0,0.2c0,0.1,0.1,0.2,0.2,0.3
			c0.1,0.1,0.2,0.1,0.3,0.2c0.1,0.1,0.3,0.1,0.4,0.1l1.3,0.2c0.9,0.1,1.6,0.4,2.1,0.9c0.3,0.3,0.5,0.6,0.6,1
			c0.1,0.4,0.2,0.8,0.2,1.3C96.3,53,96.2,53.5,96,53.9z"/>
	</g>
</g>
</svg>
