<?xml version="1.0" encoding="utf-8"?>
<!-- Generator: Adobe Illustrator 24.3.0, SVG Export Plug-In . SVG Version: 6.00 Build 0)  -->
<svg version="1.1" id="ICON_SYSTEM_100px_RO_Tech" xmlns="http://www.w3.org/2000/svg" xmlns:xlink="http://www.w3.org/1999/xlink"
	 x="0px" y="0px" viewBox="0 0 120 120" style="enable-background:new 0 0 120 120;" xml:space="preserve">
<style type="text/css">
	.st0{opacity:0.5;}
	.st1{fill:none;stroke:#0C8EFB;stroke-width:3;stroke-linecap:round;stroke-linejoin:round;stroke-miterlimit:10;}
	.st2{enable-background:new    ;}
	.st3{fill:#0755E3;}
</style>
<g id="sun" transform="translate(14.835 14.628)">
	<g id="Group_20" transform="translate(0 0)" class="st0">
		<g id="Group_6" transform="translate(49.51 34.238) rotate(70)">
			<path id="Path" class="st1" d="M0,11.7C0,5.5,5.1,0.4,11.4,0.4c4.3,0,8.2,2.4,10.1,6.2"/>
			<path id="Path-2" class="st1" d="M22.7,11.7C22.7,18,17.6,23,11.4,23c-4.3,0-8.2-2.4-10.1-6.2"/>
			<path id="Path-3" class="st1" d="M22.4,0l-0.9,6.7l-6.7-0.9"/>
			<path id="Path-4" class="st1" d="M0.2,23.5l0.9-6.7l6.7,0.9"/>
		</g>
		<path id="Path_9" class="st1" d="M0,34h18.6V20.9h11.7V0"/>
		<path id="Path_12" class="st1" d="M53.7,0v20.7h11.7v19.8h24.2"/>
		<path id="Path_13" class="st1" d="M45.4,89.8h20V64.3h24.2"/>
		<g id="Group_4" transform="translate(0.807 42.897)">
			<path id="Path_11" class="st1" d="M4.1,0l3.2,3.2l-3.2,3"/>
			<path id="Path_10" class="st1" d="M0,3.2h6.5"/>
		</g>
		<g id="Group_4-2" transform="translate(82.322 48.972)">
			<path id="Path_11-2" class="st1" d="M4.1,0l3.2,3.2l-3.2,3"/>
			<path id="Path_10-2" class="st1" d="M0,3.2h6.5"/>
		</g>
		<g id="Group_4-3" transform="translate(39.143 8.291) rotate(-90)">
			<path id="Path_11-3" class="st1" d="M4.1,0l3.2,3.2l-3.2,3"/>
			<path id="Path_10-3" class="st1" d="M0,3.2h6.5"/>
		</g>
		<path id="Path-5" class="st1" d="M0,56.6h17"/>
	</g>
	<g class="st2">
		<path class="st3" d="M14.9,88.5l-3.6-7.3H8.7v7.3H5.2V70.3h7.2c3.7,0,5.9,2.5,5.9,5.6c0,2.6-1.6,4.2-3.3,4.8l4.1,7.9H14.9z
			 M12.1,73.4H8.7v4.8h3.4c1.6,0,2.6-1,2.6-2.4C14.7,74.4,13.7,73.4,12.1,73.4z"/>
	</g>
	<g class="st2">
		<path class="st3" d="M32.2,86.7c-1.2,1.2-2.8,1.9-4.9,1.9c-2.1,0-3.7-0.7-4.9-1.9c-1.8-1.8-1.8-3.9-1.8-7.4c0-3.5,0-5.5,1.8-7.4
			c1.2-1.2,2.8-1.9,4.9-1.9c2.1,0,3.6,0.7,4.9,1.9c1.8,1.8,1.9,3.9,1.9,7.4C34.1,82.9,34,84.9,32.2,86.7z M29.6,74.3
			c-0.5-0.6-1.3-1-2.3-1s-1.8,0.4-2.3,1c-0.7,0.8-0.9,1.6-0.9,5.1c0,3.5,0.2,4.3,0.9,5.1c0.5,0.6,1.3,1,2.3,1s1.8-0.4,2.3-1
			c0.7-0.8,0.9-1.6,0.9-5.1C30.5,75.9,30.3,75,29.6,74.3z"/>
	</g>
</g>
</svg>
