<?xml version="1.0" encoding="utf-8"?>
<!-- Generator: Adobe Illustrator 24.3.0, SVG Export Plug-In . SVG Version: 6.00 Build 0)  -->
<svg version="1.1" id="Layer_1" xmlns="http://www.w3.org/2000/svg" xmlns:xlink="http://www.w3.org/1999/xlink" x="0px" y="0px"
	 viewBox="0 0 120 120" style="enable-background:new 0 0 120 120;" xml:space="preserve">
<style type="text/css">
	.st0{fill:none;stroke:#0C8EFB;stroke-width:3;stroke-linecap:round;stroke-linejoin:round;stroke-miterlimit:10;}
	
		.st1{opacity:0.5;fill:none;stroke:#0C8EFB;stroke-width:3;stroke-linecap:round;stroke-linejoin:round;stroke-miterlimit:10;enable-background:new    ;}
	.st2{opacity:0.5;}
	.st3{fill:#0C8EFB;}
	.st4{enable-background:new    ;}
	.st5{fill:#0755E3;}
</style>
<g>
	<path class="st0" d="M62.7,36"/>
	<path class="st1" d="M59.5,33.5L45.4,16.3c0,0-32.5,35-33.5,53.9s13,31.4,30.1,33.3c17.1,2,28.8-7.6,35.3-20.6"/>
	<path class="st1" d="M18.4,74.5c0,0,2.6,19.7,18,21.3"/>
	<g class="st2">
		<path class="st3" d="M54.5,65.4h-2l-1.6-4.9l-1.6,4.9h-2l-2.7-9.9h2.6l1.3,5.2l1.6-5.2h1.7l1.6,5.2l1.3-5.2h2.6L54.5,65.4z"/>
		<path class="st3" d="M63.5,65.4l-0.5-1.5H60l-0.5,1.5H57l3.6-9.9h1.9l3.6,9.9H63.5z M61.6,59.2l-0.9,2.7h1.7L61.6,59.2z"/>
		<path class="st3" d="M70.6,57.6v7.8h-2.4v-7.8h-2.4v-2.2H73v2.2H70.6z"/>
		<path class="st3" d="M74.4,65.4v-9.9h6.8v2.2h-4.3v1.7h3.7v2.2h-3.7v1.7h4.3v2.2H74.4z"/>
		<path class="st3" d="M87.9,65.4l-1.8-3.7h-0.8v3.7h-2.4v-9.9h3.9c0.5,0,1,0.1,1.5,0.3c0.4,0.2,0.8,0.4,1.1,0.7
			c0.3,0.3,0.5,0.6,0.6,1c0.1,0.4,0.2,0.8,0.2,1.2c0,0.3,0,0.6-0.1,0.9s-0.2,0.5-0.4,0.7c-0.2,0.2-0.3,0.4-0.5,0.6s-0.4,0.3-0.6,0.4
			l2.1,4.1H87.9z M87.5,58c-0.2-0.2-0.4-0.3-0.8-0.3h-1.4v2h1.4c0.3,0,0.6-0.1,0.8-0.3c0.2-0.2,0.3-0.4,0.3-0.7
			C87.8,58.4,87.7,58.2,87.5,58z"/>
	</g>
	<g class="st4">
		<path class="st5" d="M45.2,52.9v-2.6l5.2-7.9h-4.9v-2.9h8.9V42l-5.2,7.9h5.2v2.9H45.2z"/>
		<path class="st5" d="M56.2,52.9V39.4h9.1v2.9h-5.8v2.2h5v2.9h-5v2.4h5.8v2.9H56.2z"/>
		<path class="st5" d="M74.5,52.9l-2.4-5H71v5h-3.3V39.4H73c0.7,0,1.4,0.1,2,0.4s1.1,0.6,1.4,1c0.4,0.4,0.7,0.9,0.9,1.4
			s0.3,1.1,0.3,1.6c0,0.5-0.1,0.9-0.2,1.2c-0.1,0.4-0.3,0.7-0.5,1s-0.4,0.5-0.7,0.7s-0.5,0.4-0.8,0.5l2.9,5.6H74.5z M74,42.8
			c-0.3-0.3-0.6-0.4-1.1-0.4H71v2.7h1.9c0.5,0,0.8-0.1,1.1-0.4c0.3-0.3,0.4-0.6,0.4-0.9S74.2,43.1,74,42.8z"/>
		<path class="st5" d="M89.8,47.6c0,0.5,0,1-0.1,1.4c-0.1,0.5-0.2,0.9-0.4,1.3c-0.2,0.4-0.5,0.8-0.8,1.1c-0.5,0.5-1,0.9-1.6,1.1
			c-0.6,0.3-1.3,0.4-2.1,0.4s-1.5-0.1-2.1-0.4C82,52.3,81.5,52,81,51.5c-0.4-0.4-0.6-0.7-0.8-1.1c-0.2-0.4-0.3-0.8-0.4-1.3
			c-0.1-0.5-0.1-0.9-0.1-1.4c0-0.5,0-1,0-1.5c0-0.5,0-1,0-1.5c0-0.5,0-1,0.1-1.4c0.1-0.5,0.2-0.9,0.4-1.3c0.2-0.4,0.5-0.8,0.8-1.1
			c0.5-0.5,1-0.9,1.6-1.1s1.3-0.4,2.1-0.4s1.5,0.1,2.1,0.4c0.6,0.3,1.1,0.6,1.6,1.1c0.4,0.4,0.6,0.7,0.8,1.1
			c0.2,0.4,0.3,0.8,0.4,1.3c0.1,0.5,0.1,0.9,0.1,1.4c0,0.5,0,1,0,1.5C89.8,46.6,89.8,47.1,89.8,47.6z M86.5,44.6
			c0-0.4-0.1-0.7-0.1-0.9c0-0.2-0.1-0.4-0.2-0.5c-0.1-0.1-0.1-0.2-0.2-0.3c-0.1-0.2-0.3-0.3-0.5-0.4c-0.2-0.1-0.5-0.2-0.8-0.2
			c-0.3,0-0.6,0.1-0.8,0.2c-0.2,0.1-0.4,0.3-0.5,0.4c-0.1,0.1-0.1,0.2-0.2,0.3c-0.1,0.1-0.1,0.3-0.2,0.5c0,0.2-0.1,0.5-0.1,0.9
			c0,0.4,0,0.9,0,1.5c0,0.6,0,1.1,0,1.5c0,0.4,0.1,0.7,0.1,0.9c0,0.2,0.1,0.4,0.2,0.5c0.1,0.1,0.1,0.2,0.2,0.3
			c0.1,0.2,0.3,0.3,0.5,0.4c0.2,0.1,0.5,0.2,0.8,0.2c0.3,0,0.6-0.1,0.8-0.2c0.2-0.1,0.4-0.3,0.5-0.4c0.1-0.1,0.1-0.2,0.2-0.3
			c0.1-0.1,0.1-0.3,0.2-0.5c0-0.2,0.1-0.5,0.1-0.9c0-0.4,0-0.9,0-1.5C86.5,45.5,86.5,45,86.5,44.6z"/>
	</g>
	<g class="st4">
		<path class="st5" d="M54.5,77.4h-2l-1.6-4.9l-1.6,4.9h-2l-2.7-9.9h2.6l1.3,5.2l1.6-5.2h1.7l1.6,5.2l1.3-5.2h2.6L54.5,77.4z"/>
		<path class="st5" d="M63.5,77.4l-0.5-1.5H60l-0.5,1.5H57l3.6-9.9h1.9l3.6,9.9H63.5z M61.6,71.2l-0.9,2.7h1.7L61.6,71.2z"/>
		<path class="st5" d="M73.5,75.7c-0.2,0.4-0.5,0.7-0.8,1s-0.8,0.5-1.2,0.6c-0.5,0.1-1,0.2-1.5,0.2c-0.8,0-1.5-0.1-2.1-0.3
			c-0.6-0.2-1.2-0.5-1.7-1l1.6-1.6c0.3,0.3,0.6,0.4,1,0.5c0.4,0.1,0.8,0.2,1.2,0.2c0.9,0,1.4-0.3,1.4-0.9c0-0.3-0.1-0.4-0.2-0.6
			c-0.1-0.1-0.4-0.2-0.7-0.3l-1.2-0.2c-0.9-0.1-1.5-0.4-2-0.9c-0.5-0.5-0.7-1.1-0.7-2c0-0.5,0.1-0.9,0.3-1.3c0.2-0.4,0.4-0.7,0.7-1
			c0.3-0.3,0.7-0.5,1.1-0.7c0.4-0.2,1-0.2,1.5-0.2c0.7,0,1.3,0.1,1.9,0.3s1,0.5,1.5,0.9l-1.5,1.5c-0.2-0.2-0.3-0.3-0.5-0.4
			s-0.3-0.1-0.5-0.2c-0.2,0-0.3-0.1-0.5-0.1c-0.1,0-0.3,0-0.4,0c-0.2,0-0.4,0-0.5,0.1s-0.3,0.1-0.4,0.2c-0.1,0.1-0.2,0.2-0.2,0.3
			c0,0.1-0.1,0.2-0.1,0.3c0,0.1,0,0.1,0,0.2c0,0.1,0.1,0.2,0.2,0.2c0.1,0.1,0.2,0.1,0.3,0.2c0.1,0.1,0.2,0.1,0.4,0.1l1.2,0.2
			c0.9,0.1,1.5,0.4,2,0.8c0.3,0.3,0.5,0.6,0.6,0.9s0.2,0.8,0.2,1.2C73.8,74.9,73.7,75.3,73.5,75.7z"/>
		<path class="st5" d="M79.7,69.6v7.8h-2.4v-7.8h-2.4v-2.2h7.3v2.2H79.7z"/>
		<path class="st5" d="M88.3,77.4l-0.5-1.5h-3.1l-0.5,1.5h-2.6l3.6-9.9h1.9l3.6,9.9H88.3z M86.3,71.2l-0.9,2.7h1.7L86.3,71.2z"/>
		<path class="st5" d="M98.8,75c-0.1,0.5-0.4,1-0.8,1.3c-0.4,0.4-0.9,0.7-1.4,0.9c-0.5,0.2-1,0.2-1.5,0.2c-0.6,0-1.1-0.1-1.5-0.3
			c-0.4-0.2-0.9-0.5-1.2-0.8c-0.3-0.3-0.5-0.5-0.6-0.8c-0.1-0.3-0.2-0.6-0.3-1c-0.1-0.3-0.1-0.7-0.1-1c0-0.4,0-0.7,0-1.1
			s0-0.7,0-1.1c0-0.4,0-0.7,0.1-1c0.1-0.3,0.2-0.7,0.3-1c0.1-0.3,0.3-0.6,0.6-0.8c0.4-0.4,0.8-0.6,1.2-0.8s1-0.3,1.6-0.3
			c0.6,0,1.2,0.1,1.7,0.3s0.8,0.4,1.2,0.7c0.3,0.3,0.6,0.7,0.7,1.1c0.2,0.4,0.3,0.8,0.3,1.2h-2.5c-0.1-0.4-0.3-0.7-0.5-0.8
			s-0.5-0.3-0.9-0.3c-0.2,0-0.4,0-0.6,0.1c-0.2,0.1-0.3,0.2-0.4,0.3c-0.1,0.1-0.1,0.2-0.2,0.3c0,0.1-0.1,0.2-0.1,0.4
			c0,0.2-0.1,0.4-0.1,0.7s0,0.7,0,1.1s0,0.8,0,1.1s0,0.5,0.1,0.7c0,0.2,0.1,0.3,0.1,0.4c0,0.1,0.1,0.2,0.2,0.3
			c0.1,0.1,0.2,0.2,0.4,0.3c0.2,0.1,0.4,0.1,0.6,0.1c0.3,0,0.5,0,0.7-0.1c0.2-0.1,0.3-0.2,0.4-0.3c0.1-0.1,0.2-0.3,0.3-0.5
			c0.1-0.2,0.1-0.4,0.1-0.6v-0.1h-1.5v-2H99v1.4C99,73.9,98.9,74.5,98.8,75z"/>
		<path class="st5" d="M100.7,77.4v-9.9h6.8v2.2h-4.3v1.7h3.7v2.2h-3.7v1.7h4.3v2.2H100.7z"/>
	</g>
</g>
</svg>
